<svg xmlns="http://www.w3.org/2000/svg" width="161" height="50" viewBox="0 0 161 50"><defs><style>.a{fill:#6aadf9;}.b{fill:#fff;}</style></defs><path class="a" d="M3.767,8.956H0V0H7.733a4.82,4.82,0,0,1,3.089.771,2.886,2.886,0,0,1,.9,2.314,2.576,2.576,0,0,1-.464,1.643,2.53,2.53,0,0,1-1.369.815v.125l2.033,3.284-4.154,0L6.314,6.421H3.767V8.955Zm0-6.26v1.53H6.578a1.165,1.165,0,0,0,.734-.182.7.7,0,0,0,.22-.571.752.752,0,0,0-.213-.589A1.133,1.133,0,0,0,6.578,2.7Z" transform="translate(4.472)"/><path class="a" d="M3.841,2.283V3.412h6.184V5.481H3.841V6.71h6.594V8.955H0V0H10.358V2.283Z" transform="translate(17.144)"/><path class="a" d="M8.373,3.979a1.165,1.165,0,0,0-.537-.884A2.715,2.715,0,0,0,6.36,2.779a3.052,3.052,0,0,0-1.291.24,1.635,1.635,0,0,0-.766.7,2.321,2.321,0,0,0-.253,1.131A2.321,2.321,0,0,0,4.3,5.981a1.633,1.633,0,0,0,.766.7,3.044,3.044,0,0,0,1.291.24A2.415,2.415,0,0,0,7.892,6.55,1.472,1.472,0,0,0,8.4,5.508h4.273a4.012,4.012,0,0,1-.722,2.324,4.091,4.091,0,0,1-2.075,1.4A11.186,11.186,0,0,1,6.36,9.7,10.307,10.307,0,0,1,2.8,9.177,4.118,4.118,0,0,1,.7,7.573,4.924,4.924,0,0,1,0,4.851,4.924,4.924,0,0,1,.7,2.129,4.118,4.118,0,0,1,2.8.524,10.307,10.307,0,0,1,6.36,0a11.28,11.28,0,0,1,3.5.461A4.175,4.175,0,0,1,11.93,1.806a3.64,3.64,0,0,1,.716,2.173Z" transform="translate(27.579)"/><path class="a" d="M7.7,3.2l4.229,5.757H7.513l-2.4-3.462L3.677,6.748V8.955H0V0H3.677V3.173L7.146,0h4.18Z" transform="translate(40.995)"/><path class="a" d="M6.336,9.7a10.329,10.329,0,0,1-3.555-.524,4.1,4.1,0,0,1-2.092-1.6A4.98,4.98,0,0,1,0,4.851,4.982,4.982,0,0,1,.689,2.122,4.106,4.106,0,0,1,2.781.524,10.329,10.329,0,0,1,6.336,0,10.326,10.326,0,0,1,9.89.524a4.105,4.105,0,0,1,2.092,1.6,4.982,4.982,0,0,1,.689,2.729,4.98,4.98,0,0,1-.689,2.728,4.1,4.1,0,0,1-2.092,1.6A10.326,10.326,0,0,1,6.336,9.7Zm0-6.922a2.6,2.6,0,0,0-1.79.53,1.992,1.992,0,0,0-.581,1.542,1.991,1.991,0,0,0,.581,1.541,2.6,2.6,0,0,0,1.79.531,2.6,2.6,0,0,0,1.789-.531,1.991,1.991,0,0,0,.58-1.541,1.992,1.992,0,0,0-.58-1.542A2.6,2.6,0,0,0,6.336,2.779Z" transform="translate(52.176)"/><path class="a" d="M7.79,0h3.39V8.955h-4.1L3.462,4.214H3.39V8.955H0V0H4.148L7.718,4.691H7.79Z" transform="translate(66.338)"/><path class="a" d="M0,8.955H3.727V0H0Z" transform="translate(78.264)"/><path class="a" d="M7.79,0h3.39V8.955h-4.1L3.462,4.214H3.39V8.955H0V0H4.148L7.718,4.691H7.79Z" transform="translate(83.481)"/><path class="a" d="M6.808,6.341V4.295h5.863V9.36H10.1v-.8a4.109,4.109,0,0,1-1.558.859A7.083,7.083,0,0,1,6.464,9.7a10.709,10.709,0,0,1-3.631-.524A4.123,4.123,0,0,1,.7,7.573,4.941,4.941,0,0,1,0,4.838,4.884,4.884,0,0,1,.7,2.122,4.137,4.137,0,0,1,2.815.524,10.419,10.419,0,0,1,6.391,0,11.825,11.825,0,0,1,9.9.436a4.2,4.2,0,0,1,2.03,1.232,3.132,3.132,0,0,1,.705,1.907H8.4a1.108,1.108,0,0,0-.638-.594,3.578,3.578,0,0,0-1.349-.2,3.272,3.272,0,0,0-1.349.24,1.649,1.649,0,0,0-.785.7,2.289,2.289,0,0,0-.258,1.131,2.26,2.26,0,0,0,.589,1.718,2.668,2.668,0,0,0,1.877.556A4.2,4.2,0,0,0,7.949,6.9a1.256,1.256,0,0,0,.761-.556Z" transform="translate(95.407)"/><path class="a" d="M13.927,8.955H9.472L8.237,3.587H8.162L6.926,8.955H2.4L0,0H3.781L4.917,5.431h.075L6.24,0h3.919l1.26,5.431h.075L12.642,0H16.4Z" transform="translate(113.296)"/><path class="a" d="M0,8.955H3.727V0H0Z" transform="translate(129.694)"/><path class="a" d="M10.435,0V2.684H7.042V8.955H3.393V2.684H0V0Z" transform="translate(134.167)"/><path class="a" d="M7.574,0h3.607V8.955H7.574V5.732H3.607V8.955H0V0H3.607V3.123H7.574Z" transform="translate(145.347)"/><path class="a" d="M5.963,13.433H0V0H5.963Z" transform="translate(4.472 35.821)"/><path class="a" d="M11.945,0h5.2V13.433H10.857L5.309,6.322H5.2v7.111H0V0H6.36l5.475,7.036h.111Z" transform="translate(11.926 35.821)"/><path class="a" d="M11.945,0h5.2V13.433H10.857L5.309,6.322H5.2v7.111H0V0H6.36l5.475,7.036h.111Z" transform="translate(37.269 35.821)"/><path class="a" d="M11.578,0h5.566V7.7a6.559,6.559,0,0,1-1.012,3.861,5.4,5.4,0,0,1-2.884,2.021,15.7,15.7,0,0,1-4.676.594A15.7,15.7,0,0,1,3.9,13.585a5.407,5.407,0,0,1-2.885-2.021A6.559,6.559,0,0,1,0,7.7V0H5.566V7.683a1.982,1.982,0,0,0,.752,1.773,4.055,4.055,0,0,0,2.254.508,4.054,4.054,0,0,0,2.254-.508,1.983,1.983,0,0,0,.752-1.773Z" transform="translate(55.903 35.821)"/><path class="a" d="M5.648,13.434H0V0H11.6c2.173,0,3.732.389,4.633,1.157a4.336,4.336,0,0,1,1.355,3.472,3.859,3.859,0,0,1-.7,2.464,3.782,3.782,0,0,1-2.052,1.222V8.5l3.049,4.927-6.232,0-2.184-3.8H5.648v3.8Zm0-9.388v2.3H9.868a1.745,1.745,0,0,0,1.1-.274,1.051,1.051,0,0,0,.329-.855,1.125,1.125,0,0,0-.32-.885,1.7,1.7,0,0,0-1.111-.282Z" transform="translate(74.537 35.821)"/><path class="a" d="M11.16,4.45a1.04,1.04,0,0,0-.653-.831,4.1,4.1,0,0,0-1.756-.3,5.124,5.124,0,0,0-1.719.194q-.469.194-.469.563a.576.576,0,0,0,.331.545,3.678,3.678,0,0,0,1.268.25l4.56.424a7.535,7.535,0,0,1,3.824,1.247,3.512,3.512,0,0,1,1.342,3,3.969,3.969,0,0,1-.992,2.908A5.355,5.355,0,0,1,14,13.819a28.271,28.271,0,0,1-5.047.36,24.41,24.41,0,0,1-4.946-.406,5.574,5.574,0,0,1-2.915-1.459A4.345,4.345,0,0,1,0,9.342H6.251a1.23,1.23,0,0,0,.727,1.117,5.432,5.432,0,0,0,2.05.286,6.475,6.475,0,0,0,1.894-.184q.515-.185.514-.573a.682.682,0,0,0-.349-.618,3.634,3.634,0,0,0-1.324-.323L5.5,8.567A8.738,8.738,0,0,1,1.7,7.4,3.283,3.283,0,0,1,.33,4.468,3.481,3.481,0,0,1,2.51.979,16.047,16.047,0,0,1,8.825,0,15.663,15.663,0,0,1,15.03.969,3.693,3.693,0,0,1,17.3,4.45Z" transform="translate(92.426 35.075)"/><path class="a" d="M5.963,13.433H0V0H5.963Z" transform="translate(111.806 35.821)"/><path class="a" d="M11.945,0h5.2V13.433H10.857L5.309,6.322H5.2v7.111H0V0H6.36l5.475,7.036h.111Z" transform="translate(118.514 35.821)"/><path class="a" d="M10.412,9.268V6.277H19.38v7.4H15.44V12.517a6.37,6.37,0,0,1-2.383,1.256,11.335,11.335,0,0,1-3.171.406,17.091,17.091,0,0,1-5.553-.766,6.279,6.279,0,0,1-3.264-2.345A6.973,6.973,0,0,1,0,7.071,6.893,6.893,0,0,1,1.069,3.1,6.3,6.3,0,0,1,4.305.766,16.613,16.613,0,0,1,9.774,0a18.869,18.869,0,0,1,5.365.637,6.474,6.474,0,0,1,3.1,1.8,4.453,4.453,0,0,1,1.079,2.788H12.851a1.668,1.668,0,0,0-.975-.868,5.716,5.716,0,0,0-2.064-.3,5.209,5.209,0,0,0-2.064.351,2.486,2.486,0,0,0-1.2,1.024,3.224,3.224,0,0,0-.394,1.652,3.217,3.217,0,0,0,.9,2.511,4.211,4.211,0,0,0,2.87.812,6.7,6.7,0,0,0,2.233-.332,1.912,1.912,0,0,0,1.163-.812Z" transform="translate(137.148 35.075)"/><path class="a" d="M3.166,2.636,161,0l-1.809,19.774L0,21.642Z" transform="translate(0 11.94)"/><path class="b" d="M8.2,19.4H0V0H16.837c3.156,0,5.418.562,6.723,1.671a6.238,6.238,0,0,1,1.968,5.014,5.552,5.552,0,0,1-1.012,3.559,5.5,5.5,0,0,1-2.979,1.767v.272l4.213,6.773L34.986,0H45.754l9.4,19.4H46.383l-1.108-2.446H35.465L34.357,19.4H16.919l-3.171-5.489H8.2V19.4ZM40.288,6.3h0l-2.534,5.6h5.234L40.452,6.3h-.165ZM8.2,5.842V9.158h6.122a2.544,2.544,0,0,0,1.6-.394A1.518,1.518,0,0,0,16.4,7.528a1.623,1.623,0,0,0-.464-1.277,2.473,2.473,0,0,0-1.614-.409Z" transform="translate(4.472 12.687)"/><path class="b" d="M17.176,14.108a5.3,5.3,0,0,1-3.333.8,6.681,6.681,0,0,1-2.808-.517,3.542,3.542,0,0,1-1.667-1.51,4.953,4.953,0,0,1-.551-2.435,4.955,4.955,0,0,1,.551-2.435A3.544,3.544,0,0,1,11.034,6.5a6.681,6.681,0,0,1,2.808-.517,5.962,5.962,0,0,1,3.212.68,2.508,2.508,0,0,1,1.17,1.9h9.3a7.783,7.783,0,0,0-1.559-4.68,9.1,9.1,0,0,0-4.5-2.9A24.8,24.8,0,0,0,13.843,0,22.653,22.653,0,0,0,6.1,1.129,8.954,8.954,0,0,0,1.518,4.585,10.522,10.522,0,0,0,0,10.448a10.523,10.523,0,0,0,1.518,5.864A8.952,8.952,0,0,0,6.1,19.767,22.654,22.654,0,0,0,13.843,20.9a24.582,24.582,0,0,0,7.647-1.007,8.906,8.906,0,0,0,4.516-3.02,8.583,8.583,0,0,0,1.573-5.006h-9.3a3.158,3.158,0,0,1-1.1,2.245" transform="translate(58.884 12.687)"/><path class="b" d="M0,19.4H8.2V0H0Z" transform="translate(87.954 12.687)"/><path class="b" d="M24.131,9.645a10.915,10.915,0,0,0-5.577-1.837L11.9,7.183a5.315,5.315,0,0,1-1.85-.367.852.852,0,0,1-.482-.8c0-.362.228-.64.684-.83A7.383,7.383,0,0,1,12.763,4.9a5.92,5.92,0,0,1,2.561.435,1.53,1.53,0,0,1,.952,1.224H25.23a5.442,5.442,0,0,0-3.311-5.129Q18.768,0,12.87,0,6.864,0,3.66,1.442A5.132,5.132,0,0,0,.483,6.584a4.857,4.857,0,0,0,2,4.326,12.649,12.649,0,0,0,5.537,1.714l6.22.707a5.254,5.254,0,0,1,1.931.476,1.008,1.008,0,0,1,.509.912q0,.571-.751.843a9.334,9.334,0,0,1-2.762.272,7.845,7.845,0,0,1-2.989-.422,1.812,1.812,0,0,1-1.059-1.646H0a6.445,6.445,0,0,0,1.6,4.381A8.089,8.089,0,0,0,5.845,20.3a35.208,35.208,0,0,0,7.212.6,40.808,40.808,0,0,0,7.36-.53,7.774,7.774,0,0,0,4.222-2.014,5.885,5.885,0,0,0,1.448-4.285,5.2,5.2,0,0,0-1.957-4.422" transform="translate(97.644 12.687)"/><path class="b" d="M18.465,0,15.5,9.647h-.165L12.374,0H0V19.4H7.737V7.093H7.9L12.4,19.4h6.063L22.91,7.174h.164V19.4h8.232V0Z" transform="translate(125.222 12.687)"/></svg>